<svg width="91" height="26" viewBox="0 0 91 26" fill="none" xmlns="http://www.w3.org/2000/svg">
<g clip-path="url(#clip0_111_504)">
<path d="M28 10.8034C28 10.0079 28.1524 9.25763 28.4482 8.55254C28.744 7.84746 29.1564 7.23277 29.6673 6.70847C30.1873 6.18418 30.7968 5.76836 31.496 5.46102C32.1952 5.15367 32.9392 5 33.7371 5C34.5349 5 35.2699 5.15367 35.9691 5.46102C36.6683 5.76836 37.2779 6.18418 37.7978 6.70847C38.3177 7.23277 38.7301 7.84746 39.0349 8.55254C39.3396 9.25763 39.492 10.0079 39.492 10.8034C39.492 11.5989 39.3396 12.3492 39.0349 13.0542C38.7301 13.7593 38.3177 14.374 37.7978 14.8983C37.2779 15.4226 36.6683 15.8294 35.9691 16.1277C35.2699 16.426 34.5259 16.5797 33.7371 16.5797C33.3068 16.5797 32.8855 16.5254 32.4641 16.426C32.0428 16.3266 31.6484 16.1729 31.2809 15.974C30.9133 15.7751 30.5727 15.5311 30.2679 15.2418C29.9631 14.9525 29.7211 14.609 29.5418 14.2113V20.2136C29.5418 20.4305 29.4701 20.6113 29.3177 20.765C29.1653 20.9186 28.9861 20.991 28.7709 20.991C28.5558 20.991 28.3765 20.9186 28.2241 20.765C28.0717 20.6113 28 20.4305 28 20.2136V10.8034H28ZM29.5329 10.8034C29.5508 11.4181 29.6763 11.9876 29.9004 12.4938C30.1335 13.009 30.4382 13.452 30.8147 13.8226C31.1912 14.1932 31.6305 14.4915 32.1235 14.7085C32.6165 14.9254 33.1544 15.0339 33.7281 15.0339C34.3018 15.0339 34.8486 14.9254 35.3596 14.6994C35.8705 14.4734 36.3187 14.1751 36.7042 13.7864C37.0896 13.4068 37.3944 12.9548 37.6185 12.4395C37.8426 11.9243 37.9502 11.3729 37.9502 10.7944C37.9502 10.2158 37.8426 9.66441 37.6185 9.14915C37.3944 8.6339 37.0896 8.18192 36.7042 7.79322C36.3187 7.40452 35.8705 7.09718 35.3596 6.87119C34.8486 6.6452 34.3018 6.53672 33.7281 6.53672C33.1544 6.53672 32.6076 6.6452 32.0966 6.87119C31.5857 7.09718 31.1375 7.40452 30.761 7.79322C30.3845 8.18192 30.0797 8.6339 29.8556 9.14915C29.6404 9.67345 29.5329 10.2249 29.5329 10.8034Z" fill="#212121"/>
<path d="M40.0835 6.22032C40.0835 5.9401 40.1821 5.69603 40.3793 5.49716C40.5765 5.29829 40.8186 5.19885 41.0964 5.19885C41.3743 5.19885 41.6164 5.29829 41.8136 5.49716C42.0108 5.69603 42.1094 5.9401 42.1094 6.22032C42.1094 6.50055 42.0108 6.74461 41.8136 6.94348C41.6164 7.14235 41.3743 7.24179 41.0964 7.24179C40.8186 7.24179 40.5765 7.14235 40.3793 6.94348C40.1821 6.74461 40.0835 6.50055 40.0835 6.22032ZM40.3345 9.66439C40.3345 9.44744 40.4062 9.26665 40.5586 9.11298C40.711 8.9593 40.8903 8.88699 41.1054 8.88699C41.3205 8.88699 41.4998 8.9593 41.6522 9.11298C41.8046 9.26665 41.8763 9.44744 41.8763 9.66439V20.2316C41.8763 20.4486 41.8046 20.6294 41.6522 20.783C41.4998 20.9367 41.3205 21.009 41.1054 21.009C40.8903 21.009 40.711 20.9367 40.5586 20.783C40.4062 20.6294 40.3345 20.4486 40.3345 20.2316V9.66439Z" fill="#212121"/>
<path d="M43.1496 14.8893C43.1496 14.0576 43.302 13.2802 43.6158 12.548C43.9295 11.8158 44.3508 11.1831 44.8887 10.6407C45.4265 10.0983 46.054 9.67346 46.7801 9.35708C47.5062 9.0407 48.2771 8.88702 49.1018 8.88702C49.9265 8.88702 50.6974 9.0407 51.4235 9.35708C52.1496 9.67346 52.7771 10.0983 53.315 10.6407C53.8528 11.1831 54.2741 11.8158 54.5879 12.548C54.9016 13.2802 55.054 14.0576 55.054 14.8893V20.2226C55.054 20.4396 54.9823 20.6204 54.8299 20.774C54.6775 20.9277 54.4982 21 54.2831 21C54.068 21 53.8887 20.9277 53.7363 20.774C53.5839 20.6204 53.5122 20.4396 53.5122 20.2226V14.8893C53.5122 14.2746 53.3956 13.6961 53.1626 13.1537C52.9295 12.6113 52.6158 12.1413 52.2124 11.7345C51.809 11.3277 51.3429 11.0113 50.805 10.7763C50.2672 10.5413 49.6934 10.4237 49.0839 10.4237C48.4743 10.4237 47.9006 10.5413 47.3628 10.7763C46.8249 11.0113 46.3588 11.3277 45.9554 11.7345C45.552 12.1413 45.2383 12.6113 45.0052 13.1537C44.7721 13.6961 44.6556 14.2746 44.6556 14.8893V20.2226C44.6556 20.4396 44.5839 20.6204 44.4315 20.774C44.2791 20.9277 44.0998 21 43.8847 21C43.6695 21 43.4903 20.9277 43.3379 20.774C43.1855 20.6204 43.1138 20.4396 43.1138 20.2226V14.8893H43.1496Z" fill="#212121"/>
<path d="M55.0898 10.035C55.0091 9.83617 55.0091 9.62826 55.0898 9.41131C55.1705 9.19436 55.3049 9.04973 55.4842 8.95933C55.6814 8.87797 55.8697 8.88701 56.04 8.99549C56.2103 9.10396 56.3537 9.23052 56.4703 9.38419L59.6794 18.2068L63.0141 9.38419C63.1306 9.2034 63.2741 9.06781 63.4623 8.98645C63.6416 8.90509 63.8209 8.90509 64.0091 8.98645C64.2063 9.06781 64.3408 9.21244 64.4125 9.41131C64.4842 9.61018 64.4842 9.80001 64.4036 9.9808C64.3856 10.017 64.3229 10.1887 64.2153 10.4961C64.1077 10.8034 63.9105 11.3458 63.6237 12.1141C63.3368 12.8825 62.9424 13.9401 62.4404 15.278C61.9384 16.6158 61.293 18.3153 60.5041 20.3763C60.4414 20.5571 60.3428 20.7107 60.2173 20.8283C60.0918 20.9458 59.9125 21 59.6884 21C59.4553 21 59.2761 20.9277 59.1326 20.7921C58.9892 20.6475 58.8996 20.5119 58.8458 20.3853C58.1555 18.478 57.5729 16.8599 57.0888 15.5492C56.6137 14.2384 56.2283 13.1718 55.9235 12.3582C55.6277 11.5446 55.4125 10.9571 55.278 10.6045C55.1526 10.2339 55.0898 10.0531 55.0898 10.035Z" fill="#212121"/>
<path d="M65.291 6.22032C65.291 5.9401 65.3896 5.69603 65.5868 5.49716C65.784 5.29829 66.0261 5.19885 66.304 5.19885C66.5818 5.19885 66.8239 5.29829 67.0211 5.49716C67.2183 5.69603 67.3169 5.9401 67.3169 6.22032C67.3169 6.50055 67.2183 6.74461 67.0211 6.94348C66.8239 7.14235 66.5818 7.24179 66.304 7.24179C66.0261 7.24179 65.784 7.14235 65.5868 6.94348C65.3896 6.74461 65.291 6.50055 65.291 6.22032ZM65.542 9.66439C65.542 9.44744 65.6137 9.26665 65.7661 9.11298C65.9185 8.9593 66.0978 8.88699 66.3129 8.88699C66.5281 8.88699 66.7073 8.9593 66.8597 9.11298C67.0121 9.26665 67.0838 9.44744 67.0838 9.66439V20.2316C67.0838 20.4486 67.0121 20.6294 66.8597 20.783C66.7073 20.9367 66.5281 21.009 66.3129 21.009C66.0978 21.009 65.9185 20.9367 65.7661 20.783C65.6137 20.6294 65.542 20.4486 65.542 20.2316V9.66439Z" fill="#212121"/>
<path d="M68.3833 5.76837C68.3833 5.55142 68.455 5.37063 68.6074 5.21696C68.7598 5.06328 68.9391 4.99097 69.1542 4.99097C69.3694 4.99097 69.5486 5.06328 69.701 5.21696C69.8534 5.37063 69.9251 5.55142 69.9251 5.76837V8.83277H75.3843C75.6443 8.83277 75.8594 8.90509 76.0118 9.05876C76.1642 9.21244 76.2449 9.39323 76.2449 9.61018C76.2449 9.82712 76.1642 10.0079 76.0118 10.1616C75.8594 10.3153 75.6443 10.3876 75.3843 10.3876H69.9251V14.9977C69.9251 15.6124 70.0417 16.191 70.2747 16.7333C70.5078 17.2757 70.8215 17.7458 71.2249 18.1525C71.6283 18.5593 72.0945 18.8757 72.6323 19.1107C73.1702 19.3458 73.7439 19.4633 74.3534 19.4633C74.963 19.4633 75.5277 19.3548 76.0566 19.1288C76.5855 18.9028 77.0427 18.5955 77.4371 18.1977C77.5715 18.0441 77.7419 17.9627 77.948 17.9356C78.1542 17.9085 78.3514 17.9627 78.5307 18.0983C78.6652 18.2339 78.7458 18.3966 78.7817 18.5955C78.8176 18.7944 78.7727 18.9842 78.6562 19.165C78.1094 19.7435 77.4729 20.1955 76.7289 20.5209C75.9849 20.8463 75.196 21.009 74.3534 21.009C73.5287 21.009 72.7578 20.8554 72.0317 20.539C71.3056 20.2226 70.6781 19.7977 70.1403 19.2554C69.6024 18.713 69.1811 18.0802 68.8674 17.348C68.5536 16.6158 68.4012 15.8384 68.4012 15.0068V5.76837H68.3833Z" fill="#212121"/>
<path d="M80.6376 15.7118C80.7182 16.2452 80.8886 16.7424 81.1575 17.1943C81.4175 17.6553 81.7491 18.044 82.1346 18.3785C82.52 18.713 82.9593 18.9751 83.4523 19.165C83.9453 19.3548 84.4653 19.4542 85.0121 19.4542C85.6216 19.4542 86.1864 19.3457 86.7153 19.1198C87.2441 18.8938 87.7103 18.5864 88.1226 18.1887C88.275 18.035 88.4543 17.9627 88.6694 17.9627C88.8846 17.9627 89.0639 18.035 89.2163 18.1887C89.3686 18.3424 89.4404 18.5231 89.4404 18.7401C89.4404 18.957 89.3686 19.1378 89.2163 19.2915C88.6694 19.9062 88.0599 20.3401 87.3786 20.6022C86.6973 20.8644 85.9085 20.9909 85.021 20.9909C84.1963 20.9909 83.4254 20.8373 82.7083 20.539C81.9912 20.2407 81.3637 19.8248 80.8169 19.2915C80.27 18.7582 79.8487 18.1254 79.535 17.3932C79.2212 16.661 79.0688 15.8655 79.0688 14.9977C79.0688 14.1661 79.2212 13.3887 79.526 12.6655C79.8308 11.9424 80.2521 11.3096 80.79 10.7672C81.3278 10.2248 81.9553 9.79094 82.6904 9.47456C83.4254 9.14913 84.2143 8.96834 85.0748 8.94122C85.8637 8.94122 86.6077 9.0949 87.3159 9.41128C88.0151 9.72766 88.6336 10.1525 89.1804 10.6859C89.7272 11.2192 90.1575 11.8429 90.4802 12.557C90.8029 13.2712 90.9822 14.0395 91.0091 14.8531C91.0449 15.1333 90.9732 15.3503 90.8029 15.5039C90.6326 15.6576 90.4443 15.7299 90.2471 15.7299H80.6376V15.7118ZM85.0121 10.5051C84.4653 10.5051 83.9543 10.6045 83.4702 10.7943C82.9862 10.9842 82.5469 11.2463 82.1615 11.5627C81.776 11.8881 81.4533 12.2768 81.1934 12.7198C80.9334 13.1717 80.7631 13.6508 80.6645 14.1661H89.3866C89.288 13.6508 89.1087 13.1717 88.8398 12.7198C88.5798 12.2678 88.2481 11.8881 87.8627 11.5627C87.4772 11.2373 87.038 10.9842 86.5539 10.7943C86.0698 10.6045 85.5589 10.5051 85.0121 10.5051Z" fill="#212121"/>
</g>
<path d="M20.7557 4.86163C22.0799 6.74142 22.8575 9.03999 22.8575 11.5212C22.8575 17.8847 17.742 23.0423 11.4303 23.0423C8.70698 23.0423 6.20854 22.082 4.24414 20.4793C6.31472 23.4233 9.72197 25.3409 13.5727 25.3409C19.8844 25.3409 24.9999 20.1833 24.9999 13.8197C24.9968 10.205 23.3416 6.97442 20.7557 4.86163Z" fill="url(#paint0_linear_111_504)"/>
<path d="M13.5696 2.29857C16.2929 2.29857 18.7914 3.25893 20.7558 4.86162C18.6852 1.92072 15.278 0 11.4272 0C5.11555 0 0 5.1576 0 11.5212C0 15.139 1.65522 18.3665 4.2411 20.4793C2.92005 18.5995 2.14241 16.3041 2.14241 13.8229C2.14241 7.45932 7.25796 2.29857 13.5696 2.29857Z" fill="url(#paint1_linear_111_504)"/>
<path d="M22.8578 11.5212C22.8578 9.04 22.0801 6.74143 20.7559 4.86164C18.7916 3.25894 16.2931 2.29858 13.5698 2.29858C7.25813 2.29858 2.14258 7.45934 2.14258 13.8229C2.14258 16.3041 2.92022 18.6027 4.24439 20.4824C6.20879 22.0851 8.70723 23.0455 11.4305 23.0455C17.7391 23.0455 22.8578 17.8848 22.8578 11.5212Z" fill="white"/>
<path d="M13.0077 7.68286C11.2619 7.68286 9.84401 9.11238 9.84401 10.8725C9.84401 11.7479 10.1938 12.5413 10.7622 13.1207L9.48486 18.2248L12.7734 14.0527C12.8515 14.059 12.9265 14.0622 13.0077 14.0622C14.7534 14.0622 16.1713 12.6327 16.1713 10.8725C16.1713 9.10923 14.7534 7.68286 13.0077 7.68286Z" fill="black"/>
<path d="M15.237 11.8378C15.5361 11.8133 15.7337 11.2343 15.6782 10.5445C15.6228 9.85464 15.3354 9.31523 15.0362 9.33967C14.7371 9.3641 14.5396 9.94313 14.595 10.633C14.6504 11.3228 14.9379 11.8622 15.237 11.8378Z" fill="white"/>
<defs>
<linearGradient id="paint0_linear_111_504" x1="4.24214" y1="15.1035" x2="24.9976" y2="15.1035" gradientUnits="userSpaceOnUse">
<stop stop-color="#FF3960"/>
<stop offset="1" stop-color="#F9F90E"/>
</linearGradient>
<linearGradient id="paint1_linear_111_504" x1="0" y1="10.2404" x2="20.7555" y2="10.2404" gradientUnits="userSpaceOnUse">
<stop stop-color="#FF3960"/>
<stop offset="1" stop-color="#F9F90E"/>
</linearGradient>
<clipPath id="clip0_111_504">
<rect width="63" height="16" fill="white" transform="translate(28 5)"/>
</clipPath>
</defs>
</svg>
