<svg width="186" height="47" viewBox="0 0 186 47" fill="none" xmlns="http://www.w3.org/2000/svg">
<g clip-path="url(#clip0_3_54)">
<path d="M0 17.0475C0 14.7107 0.449915 12.5068 1.32328 10.4356C2.19664 8.36441 3.41406 6.55876 4.9226 5.01864C6.4576 3.47853 8.25726 2.25706 10.3216 1.35424C12.3859 0.451412 14.5825 0 16.938 0C19.2934 0 21.4636 0.451412 23.5279 1.35424C25.5922 2.25706 27.3919 3.47853 28.9269 5.01864C30.4619 6.55876 31.6793 8.36441 32.5791 10.4356C33.4789 12.5068 33.9289 14.7107 33.9289 17.0475C33.9289 19.3842 33.4789 21.5881 32.5791 23.6593C31.6793 25.7305 30.4619 27.5362 28.9269 29.0763C27.3919 30.6164 25.5922 31.8113 23.5279 32.6876C21.4636 33.5638 19.2669 34.0153 16.938 34.0153C15.6676 34.0153 14.4237 33.8559 13.1799 33.5638C11.936 33.2718 10.7715 32.8203 9.6864 32.2362C8.60131 31.652 7.59562 30.935 6.69579 30.0853C5.79596 29.2356 5.08139 28.2266 4.55208 27.0582V44.6898C4.55208 45.3271 4.34035 45.8582 3.89044 46.3096C3.44052 46.761 2.91121 46.9734 2.27604 46.9734C1.64087 46.9734 1.11155 46.761 0.661639 46.3096C0.211725 45.8582 0 45.3271 0 44.6898V17.0475H0ZM4.52561 17.0475C4.57854 18.8531 4.94906 20.526 5.6107 22.013C6.29881 23.5266 7.19863 24.8277 8.31019 25.9164C9.42174 27.0051 10.7186 27.8814 12.1742 28.5186C13.6298 29.1559 15.2177 29.4746 16.9115 29.4746C18.6053 29.4746 20.2197 29.1559 21.7282 28.4921C23.2368 27.8282 24.56 26.952 25.6981 25.8102C26.8361 24.6949 27.7359 23.3672 28.3976 21.8537C29.0592 20.3401 29.3768 18.7203 29.3768 17.0209C29.3768 15.3215 29.0592 13.7017 28.3976 12.1881C27.7359 10.6746 26.8361 9.34689 25.6981 8.20508C24.56 7.06328 23.2368 6.16045 21.7282 5.49661C20.2197 4.83277 18.6053 4.51412 16.9115 4.51412C15.2177 4.51412 13.6033 4.83277 12.0948 5.49661C10.5862 6.16045 9.26295 7.06328 8.15139 8.20508C7.03984 9.34689 6.14001 10.6746 5.47837 12.1881C4.8432 13.7282 4.52561 15.348 4.52561 17.0475Z" fill="white"/>
<path d="M35.6755 3.58475C35.6755 2.76158 35.9667 2.04463 36.5489 1.46045C37.1311 0.876273 37.8457 0.584183 38.6661 0.584183C39.4866 0.584183 40.2012 0.876273 40.7834 1.46045C41.3656 2.04463 41.6568 2.76158 41.6568 3.58475C41.6568 4.40791 41.3656 5.12486 40.7834 5.70904C40.2012 6.29322 39.4866 6.58531 38.6661 6.58531C37.8457 6.58531 37.1311 6.29322 36.5489 5.70904C35.9667 5.12486 35.6755 4.40791 35.6755 3.58475ZM36.4166 13.7017C36.4166 13.0644 36.6283 12.5333 37.0782 12.0819C37.5281 11.6305 38.0574 11.4181 38.6926 11.4181C39.3278 11.4181 39.8571 11.6305 40.307 12.0819C40.7569 12.5333 40.9687 13.0644 40.9687 13.7017V44.7429C40.9687 45.3802 40.7569 45.9113 40.307 46.3627C39.8571 46.8141 39.3278 47.0265 38.6926 47.0265C38.0574 47.0265 37.5281 46.8141 37.0782 46.3627C36.6283 45.9113 36.4166 45.3802 36.4166 44.7429V13.7017Z" fill="white"/>
<path d="M44.7267 29.0497C44.7267 26.6068 45.1766 24.3232 46.1029 22.1723C47.0292 20.0215 48.2731 18.1627 49.861 16.5695C51.449 14.9763 53.3016 13.7283 55.4453 12.7989C57.589 11.8695 59.865 11.4181 62.2998 11.4181C64.7347 11.4181 67.0107 11.8695 69.1544 12.7989C71.2981 13.7283 73.1507 14.9763 74.7387 16.5695C76.3266 18.1627 77.5705 20.0215 78.4968 22.1723C79.4231 24.3232 79.873 26.6068 79.873 29.0497V44.7164C79.873 45.3537 79.6613 45.8848 79.2113 46.3362C78.7614 46.7876 78.2321 47 77.597 47C76.9618 47 76.4325 46.7876 75.9825 46.3362C75.5326 45.8848 75.3209 45.3537 75.3209 44.7164V29.0497C75.3209 27.2441 74.9769 25.5446 74.2888 23.9514C73.6006 22.3582 72.6744 20.9774 71.4834 19.7825C70.2924 18.5876 68.9162 17.6582 67.3283 16.9678C65.7404 16.2774 64.0466 15.9322 62.2469 15.9322C60.4473 15.9322 58.7535 16.2774 57.1655 16.9678C55.5776 17.6582 54.2014 18.5876 53.0104 19.7825C51.8195 20.9774 50.8932 22.3582 50.2051 23.9514C49.517 25.5446 49.1729 27.2441 49.1729 29.0497V44.7164C49.1729 45.3537 48.9612 45.8848 48.5113 46.3362C48.0614 46.7876 47.5321 47 46.8969 47C46.2617 47 45.7324 46.7876 45.2825 46.3362C44.8326 45.8848 44.6208 45.3537 44.6208 44.7164V29.0497H44.7267Z" fill="white"/>
<path d="M79.9789 14.7904C79.7407 14.2062 79.7407 13.5955 79.9789 12.9582C80.2171 12.3209 80.6141 11.8961 81.1434 11.6305C81.7257 11.3915 82.2814 11.4181 82.7843 11.7367C83.2871 12.0554 83.7106 12.4271 84.0546 12.8785L93.5293 38.7949L103.375 12.8785C103.719 12.3475 104.142 11.9492 104.698 11.7102C105.227 11.4712 105.756 11.4712 106.312 11.7102C106.894 11.9492 107.291 12.374 107.503 12.9582C107.715 13.5424 107.715 14.1 107.477 14.6311C107.424 14.7373 107.238 15.2418 106.921 16.1446C106.603 17.0475 106.021 18.6407 105.174 20.8977C104.327 23.1548 103.163 26.2616 101.681 30.1915C100.199 34.1215 98.2931 39.1136 95.9641 45.1678C95.7789 45.6989 95.4878 46.1503 95.1172 46.4955C94.7467 46.8407 94.2174 47 93.5558 47C92.8677 47 92.3384 46.7876 91.9149 46.3893C91.4915 45.9644 91.2268 45.5661 91.068 45.1944C89.0302 39.5915 87.3099 34.8384 85.8808 30.9881C84.4781 27.1379 83.3401 24.0045 82.4402 21.6147C81.5669 19.2249 80.9317 17.4989 80.5347 16.4633C80.1642 15.3746 79.9789 14.8435 79.9789 14.7904Z" fill="white"/>
<path d="M110.097 3.58475C110.097 2.76158 110.388 2.04463 110.97 1.46045C111.552 0.876273 112.267 0.584183 113.087 0.584183C113.908 0.584183 114.622 0.876273 115.205 1.46045C115.787 2.04463 116.078 2.76158 116.078 3.58475C116.078 4.40791 115.787 5.12486 115.205 5.70904C114.622 6.29322 113.908 6.58531 113.087 6.58531C112.267 6.58531 111.552 6.29322 110.97 5.70904C110.388 5.12486 110.097 4.40791 110.097 3.58475ZM110.838 13.7017C110.838 13.0644 111.049 12.5333 111.499 12.0819C111.949 11.6305 112.479 11.4181 113.114 11.4181C113.749 11.4181 114.278 11.6305 114.728 12.0819C115.178 12.5333 115.39 13.0644 115.39 13.7017V44.7429C115.39 45.3802 115.178 45.9113 114.728 46.3627C114.278 46.8141 113.749 47.0265 113.114 47.0265C112.479 47.0265 111.949 46.8141 111.499 46.3627C111.049 45.9113 110.838 45.3802 110.838 44.7429V13.7017Z" fill="white"/>
<path d="M119.227 2.25707C119.227 1.61978 119.439 1.0887 119.889 0.637291C120.339 0.185879 120.868 -0.0265503 121.503 -0.0265503C122.139 -0.0265503 122.668 0.185879 123.118 0.637291C123.568 1.0887 123.779 1.61978 123.779 2.25707V11.2588H139.897C140.664 11.2588 141.3 11.4712 141.749 11.9226C142.199 12.374 142.438 12.9051 142.438 13.5424C142.438 14.1797 142.199 14.7107 141.749 15.1621C141.3 15.6136 140.664 15.826 139.897 15.826H123.779V29.3684C123.779 31.174 124.123 32.8734 124.812 34.4667C125.5 36.0599 126.426 37.4407 127.617 38.6356C128.808 39.8305 130.184 40.7599 131.772 41.4503C133.36 42.1407 135.054 42.4859 136.853 42.4859C138.653 42.4859 140.32 42.1672 141.882 41.5034C143.443 40.8396 144.793 39.9367 145.958 38.7684C146.354 38.317 146.857 38.078 147.466 37.9983C148.075 37.9186 148.657 38.078 149.186 38.4763C149.583 38.8746 149.821 39.3525 149.927 39.9367C150.033 40.5209 149.901 41.0785 149.557 41.6096C147.942 43.309 146.063 44.6367 143.867 45.5927C141.67 46.5486 139.341 47.0266 136.853 47.0266C134.419 47.0266 132.142 46.5751 129.999 45.6458C127.855 44.7164 126.002 43.4684 124.415 41.8751C122.827 40.2819 121.583 38.4232 120.656 36.2723C119.73 34.1215 119.28 31.8379 119.28 29.3949V2.25707H119.227Z" fill="white"/>
<path d="M155.406 31.4661C155.644 33.0328 156.147 34.4932 156.941 35.8209C157.708 37.1751 158.688 38.317 159.826 39.2994C160.964 40.2819 162.26 41.052 163.716 41.6096C165.172 42.1672 166.707 42.4593 168.321 42.4593C170.121 42.4593 171.788 42.1407 173.35 41.4768C174.911 40.813 176.287 39.9102 177.505 38.7418C177.955 38.2904 178.484 38.078 179.119 38.078C179.754 38.078 180.284 38.2904 180.733 38.7418C181.183 39.1932 181.395 39.7243 181.395 40.3616C181.395 40.9989 181.183 41.53 180.733 41.9814C179.119 43.787 177.319 45.0616 175.308 45.8316C173.297 46.6017 170.968 46.9734 168.348 46.9734C165.913 46.9734 163.637 46.522 161.519 45.6458C159.402 44.7695 157.55 43.548 155.935 41.9814C154.321 40.4147 153.077 38.5559 152.151 36.4051C151.224 34.2542 150.774 31.9175 150.774 29.3684C150.774 26.9254 151.224 24.6418 152.124 22.5175C153.024 20.3932 154.268 18.5345 155.856 16.9412C157.444 15.348 159.296 14.0734 161.466 13.1441C163.637 12.1881 165.966 11.6571 168.506 11.5774C170.835 11.5774 173.032 12.0288 175.123 12.9582C177.187 13.8876 179.013 15.1356 180.628 16.7023C182.242 18.2689 183.512 20.1011 184.465 22.1989C185.418 24.2966 185.947 26.5537 186.027 28.9435C186.132 29.7667 185.921 30.404 185.418 30.8554C184.915 31.3068 184.359 31.5192 183.777 31.5192H155.406V31.4661ZM168.321 16.1712C166.707 16.1712 165.198 16.4633 163.769 17.0209C162.34 17.5785 161.043 18.3486 159.905 19.278C158.767 20.2339 157.814 21.3757 157.047 22.6768C156.279 24.0045 155.776 25.4119 155.485 26.9254H181.236C180.945 25.4119 180.416 24.0045 179.622 22.6768C178.854 21.3492 177.875 20.2339 176.737 19.278C175.599 18.322 174.302 17.5785 172.873 17.0209C171.444 16.4633 169.935 16.1712 168.321 16.1712Z" fill="white"/>
</g>
<defs>
<clipPath id="clip0_3_54">
<rect width="186" height="47" fill="white"/>
</clipPath>
</defs>
</svg>
