<svg width="141" height="142" viewBox="0 0 141 142" fill="none" xmlns="http://www.w3.org/2000/svg">
<g clip-path="url(#clip0_2_12)">
<path d="M117.077 27.2392C124.546 37.7714 128.933 50.65 128.933 64.5519C128.933 100.206 100.078 129.104 64.4753 129.104C49.114 129.104 35.021 123.723 23.9404 114.743C35.62 131.238 54.8392 141.982 76.56 141.982C112.162 141.982 141.018 113.085 141.018 77.4305C141 57.1775 131.663 39.0769 117.077 27.2392Z" fill="url(#paint0_linear_2_12)"/>
<path d="M76.5424 12.8786C91.9037 12.8786 105.997 18.2594 117.077 27.2392C105.398 10.7616 86.1784 0 64.4576 0C28.8553 0 0 28.8975 0 64.5519C0 84.8225 9.33658 102.905 23.9228 114.743C16.4711 104.211 12.0847 91.35 12.0847 77.4481C12.0847 41.7938 40.94 12.8786 76.5424 12.8786Z" fill="url(#paint1_linear_2_12)"/>
<path d="M128.933 64.5519C128.933 50.65 124.547 37.7714 117.077 27.2392C105.997 18.2594 91.9037 12.8786 76.5424 12.8786C40.94 12.8786 12.0847 41.7938 12.0847 77.4482C12.0847 91.35 16.4711 104.229 23.9404 114.761C35.021 123.741 49.114 129.121 64.4753 129.121C100.06 129.121 128.933 100.206 128.933 64.5519Z" fill="white"/>
<path d="M73.3715 43.0463C63.5241 43.0463 55.5264 51.0558 55.5264 60.9176C55.5264 65.8221 57.4994 70.2679 60.7055 73.514L53.5005 102.112L72.0503 78.736C72.4907 78.7713 72.9135 78.7889 73.3715 78.7889C83.219 78.7889 91.2167 70.7795 91.2167 60.9176C91.2167 51.0381 83.219 43.0463 73.3715 43.0463Z" fill="black"/>
<path d="M85.9488 66.3256C87.6361 66.1887 88.7504 62.9445 88.4377 59.0794C88.1249 55.2143 86.5036 52.1921 84.8163 52.329C83.129 52.4659 82.0147 55.7101 82.3274 59.5752C82.6402 63.4403 84.2615 66.4625 85.9488 66.3256Z" fill="white"/>
</g>
<defs>
<linearGradient id="paint0_linear_2_12" x1="23.9292" y1="84.6234" x2="141.004" y2="84.6234" gradientUnits="userSpaceOnUse">
<stop stop-color="#FF3960"/>
<stop offset="1" stop-color="#F9F90E"/>
</linearGradient>
<linearGradient id="paint1_linear_2_12" x1="0" y1="57.3761" x2="117.075" y2="57.3761" gradientUnits="userSpaceOnUse">
<stop stop-color="#FF3960"/>
<stop offset="1" stop-color="#F9F90E"/>
</linearGradient>
<clipPath id="clip0_2_12">
<rect width="141" height="142" fill="white"/>
</clipPath>
</defs>
</svg>
