<svg width="39" height="39" viewBox="0 0 39 39" fill="none" xmlns="http://www.w3.org/2000/svg">
<path d="M31.9432 7.48212C33.9812 10.3751 35.178 13.9127 35.178 17.7312C35.178 27.5249 27.3051 35.4625 17.5913 35.4625C13.4001 35.4625 9.55497 33.9845 6.53174 31.5179C9.71839 36.0488 14.9622 39 20.8885 39C30.6023 39 38.4752 31.0624 38.4752 21.2688C38.4704 15.7057 35.923 10.7337 31.9432 7.48212Z" fill="url(#paint0_linear_110_1900)"/>
<path d="M20.8839 3.53753C25.0751 3.53753 28.9202 5.01553 31.9434 7.48211C28.7568 2.95601 23.513 0 17.5867 0C7.87291 0 0 7.93762 0 17.7312C0 23.2992 2.5474 28.2663 6.52711 31.5179C4.494 28.6249 3.2972 25.0922 3.2972 21.2736C3.2972 11.48 11.1701 3.53753 20.8839 3.53753Z" fill="url(#paint1_linear_110_1900)"/>
<path d="M35.1783 17.7312C35.1783 13.9126 33.9815 10.3751 31.9436 7.4821C28.9204 5.01553 25.0752 3.53752 20.884 3.53752C11.1703 3.53752 3.29736 11.48 3.29736 21.2736C3.29736 25.0922 4.49416 28.6297 6.53208 31.5227C9.55532 33.9893 13.4004 35.4673 17.5916 35.4673C27.3006 35.4673 35.1783 27.5249 35.1783 17.7312Z" fill="white"/>
<path d="M20.0188 11.8241C17.332 11.8241 15.1499 14.0241 15.1499 16.733C15.1499 18.0801 15.6882 19.3013 16.563 20.193L14.5972 28.0482L19.6583 21.6274C19.7785 21.637 19.8938 21.6419 20.0188 21.6419C22.7056 21.6419 24.8877 19.4418 24.8877 16.733C24.8877 14.0193 22.7056 11.8241 20.0188 11.8241Z" fill="black"/>
<path d="M23.4501 18.2185C23.9105 18.1808 24.2145 17.2897 24.1292 16.228C24.0439 15.1664 23.6015 14.3362 23.1412 14.3738C22.6808 14.4114 22.3768 15.3026 22.4621 16.3642C22.5474 17.4259 22.9898 18.2561 23.4501 18.2185Z" fill="white"/>
<defs>
<linearGradient id="paint0_linear_110_1900" x1="6.52866" y1="23.2445" x2="38.4716" y2="23.2445" gradientUnits="userSpaceOnUse">
<stop stop-color="#FF3960"/>
<stop offset="1" stop-color="#F9F90E"/>
</linearGradient>
<linearGradient id="paint1_linear_110_1900" x1="0" y1="15.7602" x2="31.9429" y2="15.7602" gradientUnits="userSpaceOnUse">
<stop stop-color="#FF3960"/>
<stop offset="1" stop-color="#F9F90E"/>
</linearGradient>
</defs>
</svg>
