<svg width="47" height="47" viewBox="0 0 47 47" fill="none" xmlns="http://www.w3.org/2000/svg">
<path d="M7.83331 17.625C7.83331 12.086 7.83331 9.31649 9.55406 7.59575C11.2748 5.875 14.0443 5.875 19.5833 5.875H27.4166C32.9556 5.875 35.7251 5.875 37.4459 7.59575C39.1666 9.31649 39.1666 12.086 39.1666 17.625V30.9957C39.1666 36.2505 39.1666 38.8779 37.5132 39.6815C35.8598 40.4851 33.7939 38.8619 29.6619 35.6153L28.3396 34.5763C26.0163 32.7509 24.8546 31.8382 23.5 31.8382C22.1453 31.8382 20.9837 32.7509 18.6604 34.5764L17.338 35.6154C13.2061 38.8619 11.1401 40.4851 9.48672 39.6815C7.83331 38.8779 7.83331 36.2505 7.83331 30.9957V17.625Z" fill="white" stroke="white" stroke-width="2"/>
</svg>
