<svg width="35" height="34" viewBox="0 0 35 34" fill="none" xmlns="http://www.w3.org/2000/svg">
<path d="M6.14203 17C6.14203 14.8315 6.14203 13.7472 6.32796 12.8467C7.05444 9.32837 9.80373 6.57909 13.3221 5.85261C14.2226 5.66667 15.3068 5.66667 17.4754 5.66667V5.66667C19.6439 5.66667 20.7282 5.66667 21.6287 5.85261C25.147 6.57909 27.8963 9.32837 28.6228 12.8467C28.8087 13.7472 28.8087 14.8315 28.8087 17V24.3333C28.8087 26.219 28.8087 27.1618 28.2229 27.7475C27.6371 28.3333 26.6943 28.3333 24.8087 28.3333H17.4754C15.3068 28.3333 14.2226 28.3333 13.3221 28.1474C9.80373 27.4209 7.05444 24.6716 6.32796 21.1533C6.14203 20.2528 6.14203 19.1685 6.14203 17V17Z" stroke="#CCD2E3" stroke-width="2"/>
<path d="M13.2253 15.5833L21.7253 15.5833" stroke="#CCD2E3" stroke-width="2" stroke-linecap="round" stroke-linejoin="round"/>
<path d="M17.4753 21.25H21.7253" stroke="#CCD2E3" stroke-width="2" stroke-linecap="round" stroke-linejoin="round"/>
</svg>
