<svg width="50" height="50" viewBox="0 0 50 50" fill="none" xmlns="http://www.w3.org/2000/svg">
<path fill-rule="evenodd" clip-rule="evenodd" d="M41.6666 22.9167C41.6666 17.0647 41.6666 14.1388 40.2622 12.0369C39.6542 11.127 38.873 10.3457 37.9631 9.73776C35.8612 8.33334 32.9352 8.33334 27.0833 8.33334H22.9166C17.0647 8.33334 14.1388 8.33334 12.0369 9.73776C11.127 10.3457 10.3457 11.127 9.73773 12.0369C8.33331 14.1388 8.33331 17.0647 8.33331 22.9167C8.33331 28.7686 8.33331 31.6946 9.73773 33.7964C10.3457 34.7063 11.127 35.4876 12.0369 36.0956C13.873 37.3225 16.3381 37.4776 20.8333 37.4972V37.5L23.1366 42.1066C23.9044 43.6421 26.0956 43.6421 26.8634 42.1066L29.1666 37.5V37.4972C33.6619 37.4776 36.1269 37.3225 37.9631 36.0956C38.873 35.4876 39.6542 34.7063 40.2622 33.7964C41.6666 31.6946 41.6666 28.7686 41.6666 22.9167ZM18.75 17.25C17.9216 17.25 17.25 17.9216 17.25 18.75C17.25 19.5784 17.9216 20.25 18.75 20.25H31.25C32.0784 20.25 32.75 19.5784 32.75 18.75C32.75 17.9216 32.0784 17.25 31.25 17.25H18.75ZM18.75 25.5833C17.9216 25.5833 17.25 26.2549 17.25 27.0833C17.25 27.9118 17.9216 28.5833 18.75 28.5833H25C25.8284 28.5833 26.5 27.9118 26.5 27.0833C26.5 26.2549 25.8284 25.5833 25 25.5833H18.75Z" fill="white"/>
</svg>
