<svg width="46" height="46" viewBox="0 0 46 46" fill="none" xmlns="http://www.w3.org/2000/svg">
<path d="M8.53048 26.6574L22.3153 39.6068C22.6398 39.9116 22.802 40.064 23 40.064C23.198 40.064 23.3603 39.9116 23.6847 39.6068L37.4696 26.6574C38.0744 26.0892 38.3769 25.8051 38.6184 25.5389C41.3731 22.5026 41.7277 17.9883 39.4809 14.5591C39.2839 14.2585 39.0296 13.9307 38.5208 13.275L37.9279 12.5107C37.694 12.2093 37.5771 12.0586 37.4896 11.9535C33.8327 7.55885 26.8798 8.30759 24.2424 13.3801C24.1793 13.5014 24.0971 13.6735 23.9328 14.0178C23.9072 14.0715 23.8944 14.0984 23.8856 14.1151C23.5111 14.8291 22.489 14.8291 22.1145 14.1151C22.1057 14.0984 22.0929 14.0715 22.0672 14.0178L22.0671 14.0176C21.9029 13.6734 21.8207 13.5013 21.7577 13.3801C19.1202 8.30759 12.1673 7.55885 8.51041 11.9535C8.42295 12.0586 8.30605 12.2093 8.07225 12.5106L8.07215 12.5107L7.47922 13.275L7.47919 13.275C6.97048 13.9307 6.71611 14.2585 6.51915 14.5591C4.27234 17.9883 4.62696 22.5026 7.38167 25.5389C7.62317 25.8051 7.92561 26.0892 8.53048 26.6574Z" fill="white" stroke="white" stroke-width="2"/>
</svg>
