<svg width="39" height="39" viewBox="0 0 39 39" fill="none" xmlns="http://www.w3.org/2000/svg">
<path d="M8.125 20.7344C8.125 18.528 8.125 17.4248 8.571 16.4551C9.017 15.4854 9.85459 14.7675 11.5298 13.3316L13.1548 11.9388C16.1827 9.34343 17.6966 8.04576 19.5 8.04576C21.3034 8.04576 22.8173 9.34343 25.8452 11.9388L27.4702 13.3316C29.1454 14.7675 29.983 15.4854 30.429 16.4551C30.875 17.4248 30.875 18.528 30.875 20.7344V27.625C30.875 30.6891 30.875 32.2212 29.9231 33.1731C28.9712 34.125 27.4391 34.125 24.375 34.125H14.625C11.5609 34.125 10.0288 34.125 9.0769 33.1731C8.125 32.2212 8.125 30.6891 8.125 27.625V20.7344Z" stroke="#FD913B" stroke-width="2"/>
<path d="M23.5625 34.125V25.375C23.5625 24.8227 23.1148 24.375 22.5625 24.375H16.4375C15.8852 24.375 15.4375 24.8227 15.4375 25.375V34.125" stroke="#FD913B" stroke-width="2" stroke-linecap="round" stroke-linejoin="round"/>
</svg>
