<svg width="56" height="56" viewBox="0 0 56 56" fill="none" xmlns="http://www.w3.org/2000/svg">
<path fill-rule="evenodd" clip-rule="evenodd" d="M24.0757 29.803L10.3587 25.2307C8.00553 24.4463 6.82892 24.0541 6.82892 23.3333C6.82892 22.6126 8.00553 22.2204 10.3587 21.436L42.8719 10.5982C44.5277 10.0463 45.3556 9.77035 45.7926 10.2074C46.2296 10.6444 45.9537 11.4723 45.4017 13.1281L34.564 45.6412C33.7796 47.9944 33.3874 49.1711 32.6666 49.1711C31.9459 49.1711 31.5537 47.9944 30.7693 45.6412L26.197 31.9243L36.0606 22.0607C36.6464 21.4749 36.6464 20.5251 36.0606 19.9393C35.4748 19.3536 34.5251 19.3536 33.9393 19.9393L24.0757 29.803Z" fill="white"/>
</svg>
